<?xml version="1.0" encoding="UTF-8" standalone="no"?>
<!-- Created with Inkscape (http://www.inkscape.org/) -->

<svg
   xmlns:dc="http://purl.org/dc/elements/1.1/"
   xmlns:cc="http://creativecommons.org/ns#"
   xmlns:rdf="http://www.w3.org/1999/02/22-rdf-syntax-ns#"
   xmlns:svg="http://www.w3.org/2000/svg"
   xmlns="http://www.w3.org/2000/svg"
   xmlns:sodipodi="http://sodipodi.sourceforge.net/DTD/sodipodi-0.dtd"
   xmlns:inkscape="http://www.inkscape.org/namespaces/inkscape"
   version="1.1"
   id="svg52"
   width="596"
   height="600"
   viewBox="0 0 596 600"
   sodipodi:docname="FoodRUN.svg"
   inkscape:version="0.92.4 (5da689c313, 2019-01-14)">
  <metadata
     id="metadata58">
    <rdf:RDF>
      <cc:Work
         rdf:about="">
        <dc:format>image/svg+xml</dc:format>
        <dc:type
           rdf:resource="http://purl.org/dc/dcmitype/StillImage" />
        <dc:title></dc:title>
      </cc:Work>
    </rdf:RDF>
  </metadata>
  <defs
     id="defs56" />
  <sodipodi:namedview
     pagecolor="#ffffff"
     bordercolor="#666666"
     borderopacity="1"
     objecttolerance="10"
     gridtolerance="10"
     guidetolerance="10"
     inkscape:pageopacity="0"
     inkscape:pageshadow="2"
     inkscape:window-width="1920"
     inkscape:window-height="1001"
     id="namedview54"
     showgrid="false"
     inkscape:zoom="0.95223713"
     inkscape:cx="285.67463"
     inkscape:cy="245.44402"
     inkscape:window-x="-9"
     inkscape:window-y="-9"
     inkscape:window-maximized="1"
     inkscape:current-layer="svg52" />
  <g
     id="g138"
     transform="matrix(0.9001743,0,0,0.86373959,31.204095,42.351097)">
    <path
       style="fill:#f8eb01"
       d="M 271.9574,599.00278 C 170.11257,589.77181 80.883996,529.75897 33.414621,438.56506 18.639028,410.17951 8.9741254,380.40616 3.2420962,345.61665 0.81361398,330.87742 0.58715873,327.10696 0.5924376,301.5 0.5968526,280.08128 1.0099402,270.67945 2.3499136,261.5 10.864274,203.1726 31.792294,154.35569 67.070925,110.53112 125.36133,38.120366 214.88179,-2.9005353 307.5,0.35945761 c 24.59881,0.86583359 40.90585,3.20413709 65,9.32049979 39.07639,9.9196426 77.70778,29.2915646 110.71577,55.5190216 12.86791,10.224575 35.9872,33.273705 45.96586,45.826381 36.90879,46.42945 58.93062,100.33627 64.94379,158.97464 1.53305,14.94983 1.50305,45.29237 -0.0598,60.5 -11.51271,112.02537 -83.68828,207.76079 -187.5656,248.79153 -22.15628,8.75155 -42.02585,14.03586 -67,17.81861 -14.92131,2.26009 -52.01939,3.29962 -67.5426,1.89264 z"
       id="path142"
       inkscape:connector-curvature="0" />
    <path
       style="fill:#1b4151"
       d="M 271.9574,599.00278 C 187.78742,591.37381 111.23623,548.8057 60.405826,481.36448 18.529732,425.80374 -2.164415,359.49926 0.36737036,289 2.7234335,223.39384 25.696533,161.9281 67.070925,110.53112 125.36133,38.120366 214.88179,-2.9005353 307.5,0.35945761 c 24.59881,0.86583359 40.90585,3.20413709 65,9.32049979 39.07639,9.9196426 77.70778,29.2915646 110.71577,55.5190216 12.86791,10.224575 35.9872,33.273705 45.96586,45.826381 36.90879,46.42945 58.93062,100.33627 64.94379,158.97464 1.53305,14.94983 1.50305,45.29237 -0.0598,60.5 -11.51271,112.02537 -83.68828,207.76079 -187.5656,248.79153 -22.15628,8.75155 -42.02585,14.03586 -67,17.81861 -14.92131,2.26009 -52.01939,3.29962 -67.5426,1.89264 z M 337.5,590.93966 c 61.30829,-8.87349 113.6562,-33.80627 158.53511,-75.50866 38.07857,-35.38337 65.80741,-80.21929 81.2837,-131.431 16.02795,-53.03716 16.02795,-114.96284 0,-168 -5.59002,-18.49762 -9.91105,-29.40796 -18.81234,-47.5 C 520.16554,90.571308 446.49977,32.256783 362.84902,13.615701 338.41481,8.170681 324.44453,6.6938542 297.5,6.7075243 277.09068,6.7178789 269.8374,7.1162585 258,8.8770254 212.86924,15.590046 171.83142,31.356166 136,55.747605 100.91484,79.631044 71.70024,109.76327 50.794316,143.6296 20.072321,193.39737 4.3645896,251.60242 6.3009326,308.5 10.185739,422.6513 75.311704,520.48235 179.5,568.67653 c 26.39902,12.21135 64.97321,21.99311 96,24.34397 16.39999,1.24262 45.87182,0.25348 62,-2.08084 z m 36.03111,-70.55141 c -2.27705,-2.27704 -5.05246,-8.01794 -6.91755,-14.30883 -1.70292,-5.74387 -3.94744,-9.79378 -6.53842,-11.79762 C 357.00002,491.90354 356,492.79999 356,497.9349 c 0,2.7142 -0.43886,6.0892 -0.97525,7.5 -1.05572,2.77676 -4.06504,3.42641 -5.85899,1.26483 -1.48771,-1.79258 -1.75487,-56.51062 -0.2831,-57.98239 1.8663,-1.8663 5.75685,0.73022 6.47509,4.32141 0.35324,1.76619 0.64225,9.455 0.64225,17.08625 0,15.69761 0.0598,15.79066 7.45349,11.60282 13.84862,-7.84392 16.39491,-29.94846 4.19997,-36.46015 -4.35647,-2.32621 -14.04784,-2.22972 -19.01968,0.18937 -10.11088,4.91953 -14.93564,22.80432 -8.39503,31.11935 2.53163,3.21845 1.48661,7.74146 -1.90129,8.22906 -4.33472,0.62388 -8.55263,-8.90697 -8.44539,-19.08332 0.19393,-18.40154 11.67041,-30.01275 29.56246,-29.90953 14.72272,0.0849 23.87289,9.41226 23.78006,24.24045 -0.0666,10.63063 -5.15778,19.87526 -14.64726,26.59641 l -2.91267,2.06297 3.04105,3.89378 c 1.67257,2.14159 4.25219,7.13554 5.73247,11.09767 1.48028,3.96213 3.56001,8.30811 4.62162,9.65773 2.68646,3.41528 2.41449,5.3366 -1.00579,7.10529 -2.64567,1.36813 -3.0939,1.36035 -4.5329,-0.0787 z M 171.25,510.32558 C 168.63393,508.5007 168.3878,506.75297 170.5,505 171.657,504.03978 172,501.3821 172,493.37756 172,483.05622 171.98684,483 169.57143,483 c -2.91589,0 -5.7916,-2.61354 -5.36003,-4.87138 0.19242,-1.00666 1.6436,-1.81957 3.79995,-2.12862 l 3.48865,-0.5 0.27539,-15.75 0.2754,-15.75 -2.7754,0.006 c -17.40046,0.035 -26.84518,21.17894 -15.06264,33.72088 1.79684,1.91265 1.94421,2.63363 0.97371,4.76365 -2.69639,5.91794 -9.76673,0.87768 -12.77076,-9.10395 -4.25469,-14.13728 1.80191,-28.47589 14.38491,-34.05535 6.59141,-2.92271 20.76984,-4.56844 35.69939,-4.14373 10.99345,0.31273 11.00018,0.31446 11.30056,2.89852 0.49961,4.29802 -1.87034,5.29728 -11.9504,5.03876 -5.7646,-0.14785 -9.52744,0.19284 -10.4333,0.94464 -1.8761,1.55703 -2.06891,28.87895 -0.21686,30.731 0.66,0.66 3.81,1.2 7,1.2 5.38551,0 5.8,0.16437 5.8,2.3 0,3.51759 -1.91022,4.7 -7.59301,4.7 -3.81286,0 -5.35433,0.42039 -5.8,1.58179 -0.33385,0.86998 -0.60699,6.07456 -0.60699,11.56574 0,9.48711 -0.88327,13.40689 -3.3997,15.08716 -1.59659,1.06607 -2.81573,0.85891 -5.3503,-0.90911 z m 35.82108,-4.07713 c -6.34511,-3.23546 -7.57247,-6.08859 -7.56032,-17.57489 0.01,-9.13971 0.28899,-10.70342 2.74865,-15.38765 3.31464,-6.31247 6.42982,-8.4314 8.41142,-5.72139 1.80218,2.46462 1.72949,2.89625 -1.38192,8.20546 -3.62255,6.18141 -3.97845,17.48016 -0.69001,21.90549 2.41556,3.25067 6.47452,4.14591 8.38117,1.84854 1.10219,-1.32806 0.87165,-2.38045 -1.45987,-6.66423 -1.89651,-3.48451 -2.90284,-7.02025 -3.19438,-11.22345 -0.48276,-6.9602 0.79579,-10.28597 4.82341,-12.54662 2.35322,-1.32082 2.89539,-1.29049 5.31906,0.29756 4.12789,2.70469 5.85698,7.88829 5.79323,17.36738 -0.0305,4.54005 0.36793,8.51634 0.88546,8.83619 0.51754,0.31985 1.98203,-0.10058 3.25444,-0.93429 1.89815,-1.24371 2.40455,-2.65055 2.82083,-7.83655 0.88827,-11.06591 7.58674,-22.88327 11.24843,-19.84433 2.1216,1.76076 1.91688,3.74392 -0.97487,9.44381 -4.18172,8.24256 -3.00344,22.02054 2.04899,23.95934 2.43697,0.93515 3.88358,0.75965 5.90164,-0.716 1.7492,-1.27905 1.71435,-1.53231 -0.80167,-5.82558 -5.51903,-9.41752 -5.27078,-19.82657 0.57634,-24.16541 2.26151,-1.67815 3.14011,-1.82828 5.2019,-0.88886 4.33972,1.97731 6.04561,6.67798 6.16134,16.9779 0.0572,5.09348 0.38512,9.54194 0.72865,9.88546 0.34352,0.34352 1.697,-0.0781 3.00774,-0.93692 1.79962,-1.17916 2.52832,-2.78716 2.976,-6.56706 1.11512,-9.41549 7.1965,-17.63769 15.34781,-20.7507 l 4.29914,-1.64186 0.27816,-13.1249 c 0.26225,-12.37453 0.39565,-13.1417 2.33332,-13.41891 1.13035,-0.16171 2.8107,0.54082 3.73411,1.56118 1.47456,1.62937 1.7113,5.30371 1.94483,30.18555 0.24029,25.60291 0.43256,28.43543 1.99713,29.42187 2.36544,1.49138 4.80434,-1.05468 6.8545,-7.15566 1.71434,-5.10163 4.14857,-6.51815 5.82339,-3.38871 0.76352,1.42665 0.63633,3.12227 -0.47337,6.31033 -3.4845,10.01061 -11.33815,14.39305 -18.36003,10.24512 -2.51522,-1.48578 -2.98145,-1.48578 -5.85463,0 -1.71698,0.88789 -4.38163,1.61266 -5.92144,1.6106 -3.18697,-0.004 -9.08284,-3.26765 -9.94023,-5.50198 C 272.95218,501.43301 271.27545,501 267.57312,501 c -4.37307,0 -5.75162,0.48097 -8.55678,2.98541 -5.92047,5.28579 -14.20519,5.16494 -19.29285,-0.28142 -2.59124,-2.77392 -3.34183,-3.0215 -8.53233,-2.81435 -4.36317,0.17413 -6.27452,0.76836 -8.19116,2.54656 -5.34677,4.96058 -10.07774,5.79583 -15.92892,2.81225 z m 82.10018,-6.90344 C 290.74684,497.91913 291,496.05028 291,485.84501 291,475.16092 290.82579,474 289.22251,474 c -5.19413,0 -10.16397,8.09512 -10.20055,16.61514 -0.0361,8.39937 5.37323,13.05215 10.1493,8.72987 z M 221,482.55902 c 0,-5.46252 -1.4562,-8.00833 -3.11003,-5.43714 C 216.60317,479.12247 218.38014,488 220.06739,488 220.58032,488 221,485.55156 221,482.55902 Z m 37,2.00696 C 258,480.1152 256.73892,476 255.375,476 c -1.64556,0 -1.86688,5.57606 -0.37687,9.49507 1.15449,3.03655 3.00187,2.46478 3.00187,-0.92909 z m 131.79047,20.53811 c -3.03763,-2.71412 -3.26577,-3.3846 -3.6342,-10.68049 -0.43306,-8.57589 2.17208,-23.62129 4.41194,-25.48021 0.72694,-0.60331 2.35897,-0.94987 3.62675,-0.77015 2.69938,0.38266 2.70339,0.56347 0.31099,14.03558 -1.87554,10.56158 -1.32665,16.24013 1.75785,18.18578 2.40656,1.51802 4.75988,-0.0962 7.2362,-4.96351 1.55095,-3.04846 2.11226,-6.62304 2.5,-15.92059 0.5349,-12.82642 1.23979,-14.24685 5.51934,-11.12213 1.79596,1.31132 2.01078,2.85821 2.30362,16.58829 0.25679,12.0394 0.61798,15.25531 1.76274,15.6946 1.80776,0.6937 4.29205,-1.31934 5.71406,-4.63016 0.60028,-1.39761 1.3409,-8.38629 1.64583,-15.5304 0.48083,-11.2653 0.7844,-13.0332 2.28726,-13.32003 0.95307,-0.18189 2.87188,0.89831 4.26402,2.40045 l 2.53116,2.73117 2.23599,-2.03618 c 3.62385,-3.30004 6.64646,-4.46468 9.79339,-3.7735 5.16509,1.13444 5.94259,3.49193 5.94259,18.01877 0,9.83155 0.35851,13.56915 1.44143,15.02749 2.08583,2.80892 4.68377,0.88119 6.64786,-4.93287 2.03128,-6.01295 3.31425,-7.3659 5.36833,-5.66117 2.02554,1.68104 1.91817,4.62578 -0.34766,9.53517 -3.80819,8.25122 -11.92504,11.89662 -17.12542,7.69127 -2.39084,-1.93337 -2.5037,-2.55784 -2.9925,-16.55817 -0.55915,-16.0153 -1.3653,-18.391 -5.11015,-15.05947 -1.19095,1.0595 -3.22218,4.17637 -4.51386,6.92637 -1.95258,4.1571 -2.35014,6.62301 -2.35826,14.62756 -0.008,7.60654 -0.34646,9.90697 -1.61365,10.95865 -1.34387,1.11531 -2.04877,1.07577 -4.34825,-0.24395 -2.33285,-1.33888 -3.10451,-1.37548 -5.14612,-0.24409 -3.89573,2.15887 -8.32204,1.70881 -11.1662,-1.13534 l -2.53717,-2.53718 -3.73874,2.53718 c -4.94174,3.35355 -8.63132,3.24908 -12.66917,-0.35874 z M 187.7175,380.91929 c -2.08037,-0.49585 -5.00537,-1.54344 -6.5,-2.32799 -3.93305,-2.06452 -9.74144,-8.46453 -11.88111,-13.0913 l -1.84982,-4 -16.44298,-0.27573 c -13.52396,-0.22678 -16.76256,-0.56496 -18.24328,-1.90499 -1.65846,-1.50088 -1.7991,-4.00057 -1.785,-31.72427 0.008,-16.55225 0.40908,-30.71673 0.89035,-31.4766 0.48127,-0.75988 5.08688,-4.59188 10.23469,-8.51555 l 9.35965,-7.13396 0.61037,-5.48445 c 1.06303,-9.55177 3.02196,-12.4695 19.54149,-29.10602 14.51072,-14.61349 15.63009,-16.00913 16.46514,-20.52894 0.49278,-2.66722 1.70099,-5.97449 2.6849,-7.34949 2.47362,-3.45681 28.25671,-20.64471 32.90477,-21.93546 2.08633,-0.57936 5.47168,-1.0559 7.52301,-1.05896 3.31267,-0.005 3.94746,-0.43248 5.67758,-3.82379 2.29357,-4.49578 8.44764,-10.30187 13.8294,-13.04745 C 257.23188,174.82073 265.3743,174 291.75321,174 h 25.38589 l -0.31955,-2.25 c -0.24538,-1.72779 -1.07837,-2.32307 -3.58896,-2.56481 -2.13412,-0.20549 -3.82347,-1.16041 -4.86501,-2.75 -1.46378,-2.23401 -1.46027,-2.64173 0.0425,-4.93519 1.51714,-2.31544 2.21792,-2.5 9.49257,-2.5 8.90592,0 10.42298,-0.94064 9.91762,-6.14937 -0.27176,-2.80107 -0.79189,-3.37606 -3.56207,-3.93776 -1.78411,-0.36176 -3.92161,-1.22025 -4.75,-1.90775 -2.0545,-1.70509 -1.89483,-5.34341 0.32258,-7.35013 1.60721,-1.45451 5.12018,-1.65499 29,-1.65499 25.83793,0 27.2694,0.0981 29.17126,2 1.1,1.1 2,2.675 2,3.5 0,2.52904 -3.81082,5.5 -7.05479,5.5 -3.02042,0 -3.05136,0.0534 -2.75,4.75 l 0.30479,4.75 8.12986,0.2885 c 6.50954,0.231 8.47637,0.67141 9.86852,2.20971 2.48573,2.7467 1.27761,6.79199 -2.26361,7.57951 -5.59265,1.24372 -6.23477,1.5997 -6.23477,3.45642 0,1.82907 1.46528,1.90985 39.58913,2.18261 l 39.58913,0.28325 1.91087,2.36078 c 1.84912,2.2845 1.91087,5.2331 1.91087,91.25 0,87.55589 -0.03,88.91922 -2,90.88922 -1.83731,1.83731 -3.33333,2 -18.39142,2 H 426.2172 l -1.61007,4.02396 c -0.88554,2.21318 -3.4449,6.01452 -5.68748,8.44742 -12.49964,13.56051 -35.56295,8.95669 -42.54479,-8.49264 L 374.78284,361 H 296.91922 219.0556 l -2.14735,4.99164 c -2.32701,5.40928 -8.26491,11.44283 -13.26869,13.48242 -4.53403,1.84812 -11.55713,2.4856 -15.92206,1.44523 z m 14.0452,-12.59144 c 4.66936,-3.48618 6.46021,-6.78498 6.53958,-12.04607 0.22874,-15.16272 -18.45234,-21.36271 -27.55771,-9.14602 -4.9567,6.65042 -2.3898,17.83554 5.01645,21.85895 4.628,2.51414 12.16159,2.20018 16.00168,-0.66686 z M 408.01017,368.75 c 7.61234,-5.18091 9.68159,-12.21619 5.80224,-19.72712 -5.34402,-10.34673 -19.18173,-11.33481 -25.93421,-1.85183 -3.09942,4.35273 -3.24094,12.51151 -0.28625,16.50296 C 390.98854,368.26244 395.81201,371 400.5,371 c 2.71374,0 5.37626,-0.79767 7.51017,-2.25 z M 166.71121,350.19964 c 0.66617,-0.42335 1.88701,-2.38714 2.71298,-4.36396 2.13955,-5.12065 6.06775,-9.45232 11.43121,-12.60529 4.02172,-2.36422 5.71746,-2.72852 12.6446,-2.71642 5.76662,0.0101 8.9219,0.51333 11.30226,1.8027 4.74561,2.57056 10.89668,9.24109 12.22061,13.25263 0.62552,1.89533 1.97168,3.8926 2.99147,4.43838 2.80565,1.50153 12.5385,1.23604 13.87853,-0.37859 0.80715,-0.97257 1.06066,-9.90759 0.87244,-30.75 L 234.5,289.5 l -38.14751,-0.26179 -38.14751,-0.26178 -8.17042,6.058 c -4.49373,3.33189 -7.99113,6.5997 -7.77201,7.26178 0.27282,0.82432 4.6286,1.3614 13.81793,1.70379 7.38074,0.275 13.9277,0.83049 14.54881,1.23442 2.71879,1.76811 2.09672,5.13183 -2.73338,14.78012 -6.12715,12.23919 -8.49413,14.16772 -18.32989,14.93456 L 142.5,335.5 l -0.29935,6.91048 c -0.21019,4.85226 0.0876,7.15597 1,7.73469 1.64212,1.04163 21.88343,1.08853 23.51056,0.0545 z m 206.74426,0.17907 c 0.89047,-0.3417 2.2912,-2.22998 3.11273,-4.19617 3.84739,-9.20811 11.60698,-15.02871 21.18141,-15.88853 11.2526,-1.01053 20.39591,3.89917 25.5169,13.70187 1.56859,3.00262 3.38782,5.80001 4.04273,6.21641 1.41727,0.9011 20.83594,1.05296 23.10897,0.18072 C 451.76265,349.8771 452,347.55059 452,334.88834 V 319.99066 L 348.75,320.24533 245.5,320.5 l -0.31823,3.31532 C 244.57519,330.13465 243.79321,330 281.09939,330 h 33.8545 l 1.63807,2.5 c 1.51741,2.31587 1.51741,2.68413 0,5 l -1.63807,2.5 h -33.77694 c -24.93763,0 -34.09099,0.31404 -34.97695,1.2 -0.66,0.66 -1.2,2.595 -1.2,4.3 0,1.705 0.54,3.64 1.2,4.3 0.90762,0.90762 16.3596,1.2 63.41821,1.2 34.22002,0 62.94678,-0.27958 63.83726,-0.62129 z m -38.80048,-12.20745 c -2.15105,-2.37688 -2.09544,-4.46269 0.17375,-6.51627 C 336.26307,330.35693 338.72789,330 346.25731,330 356.40137,330 359,331.01966 359,335 c 0,3.99781 -2.58896,5 -12.91644,5 -8.1985,0 -10.0403,-0.29472 -11.42857,-1.82874 z M 152.46081,324.37667 c 0.89341,-0.34284 2.5455,-2.42888 3.67131,-4.63566 2.49929,-4.89899 1.68427,-5.70352 -5.80033,-5.7257 -7.52184,-0.0223 -8.33179,0.50509 -8.33179,5.42501 0,2.32449 0.3,4.52635 0.66667,4.89301 0.84154,0.84155 7.6357,0.87161 9.79414,0.0433 z M 451.5,247 v -61.5 l -95,-0.27155 c -83.85578,-0.2397 -95.46923,-0.0897 -99,1.27859 -4.9777,1.92904 -7.75136,4.21598 -10.41774,8.58967 -2.03268,3.33422 -2.07486,4.51104 -2.07852,57.98662 -0.002,30.02084 0.29836,54.88544 0.6676,55.25467 0.36923,0.36924 46.83173,0.55674 103.25,0.41667 L 451.5,308.5 Z m -192.18463,41.00139 c -4.97301,-2.02272 -4.70892,-8.45471 0.39134,-9.53103 5.64603,-1.19151 5.77283,-1.45358 6.08487,-12.57668 0.35947,-12.81369 0.002,-14.32252 -3.76806,-15.88394 -4.7305,-1.95944 -9.59947,-8.07364 -10.9662,-13.7708 -1.19187,-4.96829 -1.12374,-5.27896 4.02461,-18.35131 2.88035,-7.31361 6.26979,-14.33026 7.53208,-15.59255 L 264.90909,200 h 83.6112 c 52.36071,0 84.29165,0.36417 85.43177,0.97434 2.08461,1.11565 13.04794,27.63493 13.04794,31.56177 0,6.02008 -4.43293,12.74623 -11.27964,17.1148 l -3.77965,2.41161 0.27965,12.67918 0.27964,12.67919 3.45114,0.70439 C 439.29584,278.80795 442,281.21074 442,283.5 c 0,0.61476 -0.63864,1.99125 -1.41921,3.05887 -1.38454,1.89371 -3.58927,1.94589 -90.25,2.13611 -50.00433,0.10976 -89.78565,-0.1934 -91.01542,-0.69359 z m 161.46326,-23.08412 0.27863,-12.58273 -5.01808,-3.1194 -5.01807,-3.11941 -5.76056,3.04366 c -7.3653,3.89155 -14.81895,3.74216 -21.1132,-0.42318 l -4.03352,-2.66926 -5.65846,2.97653 c -8.1874,4.30682 -17.72283,3.6644 -23.52314,-1.58481 -1.46438,-1.32525 -2.2594,-1.15974 -7.38814,1.53814 -8.27885,4.35493 -17.78431,3.73572 -23.61186,-1.53814 -1.46438,-1.32525 -2.2594,-1.15974 -7.38814,1.53814 -8.32008,4.37661 -17.78325,3.73668 -23.68182,-1.60145 -1.5567,-1.4088 -2.1459,-1.29701 -6.53659,1.24013 -2.65413,1.53366 -5.15629,3.26009 -5.56037,3.8365 -0.88584,1.26362 -1.0188,21.72384 -0.15579,23.97281 0.55029,1.43404 7.57042,1.56345 72.25,1.33179 L 420.5,277.5 Z M 274.53212,240.55103 C 280.03522,238.25168 278.76083,237 270.91667,237 c -7.49077,0 -8.75221,1.22778 -3.8377,3.73526 3.06721,1.56495 3.27931,1.55971 7.45315,-0.18423 z m 31.51754,-0.0767 C 310.75024,238.04355 309.53388,237 302,237 c -7.45338,0 -8.70618,1.01051 -4.25,3.42803 3.5156,1.90724 4.68833,1.91378 8.29966,0.0463 z m 31,0 C 341.75024,238.04355 340.53388,237 333,237 c -7.45338,0 -8.70618,1.01051 -4.25,3.42803 3.5156,1.90724 4.68833,1.91378 8.29966,0.0463 z m 32.60503,-0.6027 C 372.27948,237.69324 370.91438,237 364,237 c -7.46618,0 -8.68686,0.9962 -4.25,3.46844 2.89132,1.61107 7.58514,1.32823 9.90469,-0.59682 z m 31,0 C 403.27948,237.69324 401.91438,237 395,237 c -7.46618,0 -8.68686,0.9962 -4.25,3.46844 2.89132,1.61107 7.58514,1.32823 9.90469,-0.59682 z m 31,0 C 434.27948,237.69324 432.91438,237 426,237 c -7.46618,0 -8.68686,0.9962 -4.25,3.46844 2.89132,1.61107 7.58514,1.32823 9.90469,-0.59682 z M 281.61747,225.23469 c 1.43331,-0.94234 4.64942,-11.99384 3.86139,-13.26889 -0.90264,-1.46052 -15.02995,-1.21162 -16.27345,0.2867 -1.73188,2.08679 -5.27329,11.82865 -4.66047,12.82022 0.67528,1.09262 15.44388,1.23273 17.07253,0.16197 z m 31.30425,-1.52879 c 0.47972,-1.26176 1.03108,-4.52426 1.22525,-7.25 L 314.5,211.5 h -8.45896 -8.45896 l -1.81579,5.9643 c -0.99869,3.28036 -1.59378,6.54286 -1.32243,7.25 0.34881,0.90898 3.00037,1.2857 9.04951,1.2857 8.00163,0 8.61266,-0.14868 9.42835,-2.2941 z m 29.87209,-5.4559 0.29381,-7.25 h -8.47642 c -9.44008,0 -8.90858,-0.43451 -10.08797,8.24706 -0.35469,2.61089 -0.35547,5.21537 -0.002,5.78773 0.38879,0.62908 4.07133,0.92687 9.31084,0.75294 L 342.5,225.5 Z m 29.88394,6.14739 c 0.33824,-0.88143 0.21161,-4.14393 -0.28139,-7.25 L 371.5,211.5 h -8.5 -8.5 l -0.30402,5.88803 C 353.74772,226.0695 353.67263,226 363.5,226 c 6.93252,0 8.67985,-0.30512 9.17775,-1.60261 z m 29.85159,0.55514 c 0.76453,-1.23704 -1.35208,-10.89885 -2.78274,-12.70253 -0.64544,-0.81373 -3.79138,-1.25 -9.01365,-1.25 h -8.02216 l 0.6236,6.678 c 0.34313,3.67443 1.19526,7.04083 1.89461,7.48469 1.87959,1.19294 16.54326,1.01482 17.30034,-0.21016 z m 30.02356,-0.22978 c 0.26957,-0.70249 -0.60201,-3.96499 -1.93685,-7.25 l -2.42697,-5.97275 -8.09454,-0.29044 c -7.85592,-0.28188 -8.09438,-0.22293 -8.08896,2 0.007,3.03777 1.94256,9.97159 3.22083,11.54044 1.42444,1.74824 16.65436,1.72429 17.32649,-0.0273 z M 213.5,257.5 v -20 l -9,-0.27686 -9,-0.27686 -15.30479,15.34346 c -11.10075,11.12881 -15.6771,16.42392 -16.66019,19.27686 -2.24938,6.52775 -2.35735,6.50135 25.35168,6.20057 L 213.5,277.5 Z m 20.40006,19.12042 c 0.79314,-0.95568 1.06122,-7.17798 0.87245,-20.25 L 234.5,237.5 l -4.40089,-0.31487 c -2.84393,-0.20348 -4.69587,0.15031 -5.23469,1 -1.21906,1.92243 -1.0674,35.56708 0.17076,37.88061 1.23579,2.30909 7.10411,2.67627 8.86488,0.55468 z m 0.49295,-52.20221 c 0.78768,-2.05265 0.78768,-14.78377 0,-16.83642 -0.80833,-2.10649 -6.5464,-2.06963 -10.69267,0.0687 C 216.63902,211.29216 200,223.13721 200,224.52237 c 0,2.29475 33.51141,2.19327 34.39301,-0.10416 z M 368.81955,171.75 c -0.31709,-2.23269 -0.46658,-2.25209 -19.42959,-2.5211 -15.8717,-0.22517 -19.31781,-0.0208 -20.33609,1.20619 -2.59319,3.1246 -0.11374,3.56491 20.0747,3.56491 H 369.1391 Z M 342.80479,153.67183 C 343.07438,149.53951 342.87449,149 341.07384,149 c -2.57629,0 -3.76978,4.17716 -2.18641,7.65229 1.70182,3.73507 3.57207,2.31212 3.91736,-2.98046 z m 15.99652,-0.0485 C 358.55606,150.2671 358.12792,149.5 356.5,149.5 c -1.60337,0 -2.0633,0.77307 -2.3192,3.89821 -0.33015,4.0319 0.98957,5.85738 3.52982,4.88259 0.95197,-0.3653 1.29675,-1.83759 1.09069,-4.65748 z M 345.75,126.9199 c -2.01024,-1.17086 -2.34868,-5.92122 -0.55,-7.7199 2.65422,-2.65422 8.8,-0.29966 8.8,3.37143 0,1.77563 -3.56302,5.4392 -5.25,5.39816 -0.6875,-0.0167 -2.0375,-0.48908 -3,-1.04969 z m 24.88214,-12.0347 c -2.16752,-3.09458 0.2985,-7.8852 4.05899,-7.8852 1.75014,0 5.30887,3.63897 5.30887,5.42857 0,4.28319 -6.83334,6.07516 -9.36786,2.45663 z m -12.97715,-9.71394 c -2.15105,-2.37688 -2.09544,-4.46269 0.17375,-6.516272 C 361.48247,95.348411 366,97.197723 366,102 c 0,4.87995 -5.05887,6.80241 -8.34501,3.17126 z m 43.91644,-4.74269 c -1.965,-1.965001 -2.03356,-5.800144 -0.1319,-7.378383 2.5006,-2.075313 6.90985,-0.875732 7.97446,2.169531 1.73563,4.964702 -4.16659,8.884822 -7.84256,5.208852 z m -19.34892,-4.985274 c -2.69559,-1.888061 -2.88013,-5.53818 -0.39377,-7.788308 2.37688,-2.15105 4.46269,-2.095433 6.51627,0.173753 2.1712,2.399142 2.10048,5.458119 -0.17375,7.516271 -2.26591,2.050616 -3.14077,2.06507 -5.94875,0.09828 z"
       id="path140"
       inkscape:connector-curvature="0" />
  </g>
</svg>
